<mxfile host="app.diagrams.net" modified="2024-03-17T04:51:56.862Z" agent="Mozilla/5.0 (Windows NT 10.0; Win64; x64) AppleWebKit/537.36 (KHTML, like Gecko) Chrome/122.0.0.0 Safari/537.36" etag="N5cU4RkEOAXZGT0b86KE" version="24.0.7" type="github">
  <diagram name="페이지-1" id="qs2-ORPQtPB0dxBW6ePt">
    <mxGraphModel dx="899" dy="687" grid="1" gridSize="10" guides="1" tooltips="1" connect="1" arrows="1" fold="1" page="1" pageScale="1" pageWidth="827" pageHeight="1169" math="0" shadow="0">
      <root>
        <mxCell id="0" />
        <mxCell id="1" parent="0" />
        <mxCell id="8S-bYS2UDUefdeKPtJc--1" value="" style="swimlane;startSize=0;" vertex="1" parent="1">
          <mxGeometry x="124" y="30" width="579" height="710" as="geometry" />
        </mxCell>
        <mxCell id="8S-bYS2UDUefdeKPtJc--2" value="ap-northeast-2" style="points=[[0,0],[0.25,0],[0.5,0],[0.75,0],[1,0],[1,0.25],[1,0.5],[1,0.75],[1,1],[0.75,1],[0.5,1],[0.25,1],[0,1],[0,0.75],[0,0.5],[0,0.25]];outlineConnect=0;gradientColor=none;html=1;whiteSpace=wrap;fontSize=12;fontStyle=0;container=1;pointerEvents=0;collapsible=0;recursiveResize=0;shape=mxgraph.aws4.group;grIcon=mxgraph.aws4.group_region;strokeColor=#147EBA;fillColor=none;verticalAlign=top;align=left;spacingLeft=30;fontColor=#147EBA;dashed=1;" vertex="1" parent="8S-bYS2UDUefdeKPtJc--1">
          <mxGeometry x="18.130000000000006" y="100" width="533" height="570" as="geometry" />
        </mxCell>
        <mxCell id="8S-bYS2UDUefdeKPtJc--3" value="VPC" style="points=[[0,0],[0.25,0],[0.5,0],[0.75,0],[1,0],[1,0.25],[1,0.5],[1,0.75],[1,1],[0.75,1],[0.5,1],[0.25,1],[0,1],[0,0.75],[0,0.5],[0,0.25]];outlineConnect=0;gradientColor=none;html=1;whiteSpace=wrap;fontSize=12;fontStyle=0;container=1;pointerEvents=0;collapsible=0;recursiveResize=0;shape=mxgraph.aws4.group;grIcon=mxgraph.aws4.group_vpc;strokeColor=#248814;fillColor=none;verticalAlign=top;align=left;spacingLeft=30;fontColor=#AAB7B8;dashed=0;" vertex="1" parent="8S-bYS2UDUefdeKPtJc--2">
          <mxGeometry x="43" y="90" width="456" height="470" as="geometry" />
        </mxCell>
        <mxCell id="8S-bYS2UDUefdeKPtJc--4" value="Public subnet" style="points=[[0,0],[0.25,0],[0.5,0],[0.75,0],[1,0],[1,0.25],[1,0.5],[1,0.75],[1,1],[0.75,1],[0.5,1],[0.25,1],[0,1],[0,0.75],[0,0.5],[0,0.25]];outlineConnect=0;gradientColor=none;html=1;whiteSpace=wrap;fontSize=12;fontStyle=0;container=1;pointerEvents=0;collapsible=0;recursiveResize=0;shape=mxgraph.aws4.group;grIcon=mxgraph.aws4.group_security_group;grStroke=0;strokeColor=#248814;fillColor=#E9F3E6;verticalAlign=top;align=left;spacingLeft=30;fontColor=#248814;dashed=0;" vertex="1" parent="8S-bYS2UDUefdeKPtJc--3">
          <mxGeometry x="39" y="30" width="130" height="130" as="geometry" />
        </mxCell>
        <mxCell id="8S-bYS2UDUefdeKPtJc--12" value="ALB" style="sketch=0;outlineConnect=0;fontColor=#232F3E;gradientColor=none;fillColor=#4D27AA;strokeColor=none;dashed=0;verticalLabelPosition=bottom;verticalAlign=top;align=center;html=1;fontSize=12;fontStyle=0;aspect=fixed;pointerEvents=1;shape=mxgraph.aws4.application_load_balancer;" vertex="1" parent="8S-bYS2UDUefdeKPtJc--4">
          <mxGeometry x="77.99" y="51" width="38" height="38" as="geometry" />
        </mxCell>
        <mxCell id="8S-bYS2UDUefdeKPtJc--66" value="Security group" style="fillColor=none;strokeColor=#DD3522;verticalAlign=top;fontStyle=0;fontColor=#DD3522;whiteSpace=wrap;html=1;" vertex="1" parent="8S-bYS2UDUefdeKPtJc--4">
          <mxGeometry y="27.5" width="129.5" height="95" as="geometry" />
        </mxCell>
        <mxCell id="8S-bYS2UDUefdeKPtJc--5" value="Public subnet" style="points=[[0,0],[0.25,0],[0.5,0],[0.75,0],[1,0],[1,0.25],[1,0.5],[1,0.75],[1,1],[0.75,1],[0.5,1],[0.25,1],[0,1],[0,0.75],[0,0.5],[0,0.25]];outlineConnect=0;gradientColor=none;html=1;whiteSpace=wrap;fontSize=12;fontStyle=0;container=1;pointerEvents=0;collapsible=0;recursiveResize=0;shape=mxgraph.aws4.group;grIcon=mxgraph.aws4.group_security_group;grStroke=0;strokeColor=#248814;fillColor=#E9F3E6;verticalAlign=top;align=left;spacingLeft=30;fontColor=#248814;dashed=0;" vertex="1" parent="8S-bYS2UDUefdeKPtJc--3">
          <mxGeometry x="279" y="30" width="130" height="130" as="geometry" />
        </mxCell>
        <mxCell id="8S-bYS2UDUefdeKPtJc--6" value="Private subnet" style="points=[[0,0],[0.25,0],[0.5,0],[0.75,0],[1,0],[1,0.25],[1,0.5],[1,0.75],[1,1],[0.75,1],[0.5,1],[0.25,1],[0,1],[0,0.75],[0,0.5],[0,0.25]];outlineConnect=0;gradientColor=none;html=1;whiteSpace=wrap;fontSize=12;fontStyle=0;container=1;pointerEvents=0;collapsible=0;recursiveResize=0;shape=mxgraph.aws4.group;grIcon=mxgraph.aws4.group_security_group;grStroke=0;strokeColor=#147EBA;fillColor=#E6F2F8;verticalAlign=top;align=left;spacingLeft=30;fontColor=#147EBA;dashed=0;" vertex="1" parent="8S-bYS2UDUefdeKPtJc--3">
          <mxGeometry x="39" y="170" width="130" height="130" as="geometry" />
        </mxCell>
        <mxCell id="8S-bYS2UDUefdeKPtJc--7" value="Private subnet" style="points=[[0,0],[0.25,0],[0.5,0],[0.75,0],[1,0],[1,0.25],[1,0.5],[1,0.75],[1,1],[0.75,1],[0.5,1],[0.25,1],[0,1],[0,0.75],[0,0.5],[0,0.25]];outlineConnect=0;gradientColor=none;html=1;whiteSpace=wrap;fontSize=12;fontStyle=0;container=1;pointerEvents=0;collapsible=0;recursiveResize=0;shape=mxgraph.aws4.group;grIcon=mxgraph.aws4.group_security_group;grStroke=0;strokeColor=#147EBA;fillColor=#E6F2F8;verticalAlign=top;align=left;spacingLeft=30;fontColor=#147EBA;dashed=0;" vertex="1" parent="8S-bYS2UDUefdeKPtJc--3">
          <mxGeometry x="39" y="313.5" width="130" height="130" as="geometry" />
        </mxCell>
        <mxCell id="8S-bYS2UDUefdeKPtJc--8" value="Private subnet" style="points=[[0,0],[0.25,0],[0.5,0],[0.75,0],[1,0],[1,0.25],[1,0.5],[1,0.75],[1,1],[0.75,1],[0.5,1],[0.25,1],[0,1],[0,0.75],[0,0.5],[0,0.25]];outlineConnect=0;gradientColor=none;html=1;whiteSpace=wrap;fontSize=12;fontStyle=0;container=1;pointerEvents=0;collapsible=0;recursiveResize=0;shape=mxgraph.aws4.group;grIcon=mxgraph.aws4.group_security_group;grStroke=0;strokeColor=#147EBA;fillColor=#E6F2F8;verticalAlign=top;align=left;spacingLeft=30;fontColor=#147EBA;dashed=0;" vertex="1" parent="8S-bYS2UDUefdeKPtJc--3">
          <mxGeometry x="279" y="170" width="130" height="130" as="geometry" />
        </mxCell>
        <mxCell id="8S-bYS2UDUefdeKPtJc--9" value="Private subnet" style="points=[[0,0],[0.25,0],[0.5,0],[0.75,0],[1,0],[1,0.25],[1,0.5],[1,0.75],[1,1],[0.75,1],[0.5,1],[0.25,1],[0,1],[0,0.75],[0,0.5],[0,0.25]];outlineConnect=0;gradientColor=none;html=1;whiteSpace=wrap;fontSize=12;fontStyle=0;container=1;pointerEvents=0;collapsible=0;recursiveResize=0;shape=mxgraph.aws4.group;grIcon=mxgraph.aws4.group_security_group;grStroke=0;strokeColor=#147EBA;fillColor=#E6F2F8;verticalAlign=top;align=left;spacingLeft=30;fontColor=#147EBA;dashed=0;" vertex="1" parent="8S-bYS2UDUefdeKPtJc--3">
          <mxGeometry x="279" y="313.5" width="130" height="130" as="geometry" />
        </mxCell>
        <mxCell id="8S-bYS2UDUefdeKPtJc--14" value="ap-northeast-2b" style="fillColor=none;strokeColor=#147EBA;dashed=1;verticalAlign=top;fontStyle=0;fontColor=#147EBA;whiteSpace=wrap;html=1;" vertex="1" parent="8S-bYS2UDUefdeKPtJc--3">
          <mxGeometry x="264" y="-20" width="160" height="490" as="geometry" />
        </mxCell>
        <mxCell id="8S-bYS2UDUefdeKPtJc--71" style="edgeStyle=orthogonalEdgeStyle;rounded=0;orthogonalLoop=1;jettySize=auto;html=1;targetPerimeterSpacing=0;startArrow=classic;startFill=1;" edge="1" parent="8S-bYS2UDUefdeKPtJc--3" source="8S-bYS2UDUefdeKPtJc--16" target="8S-bYS2UDUefdeKPtJc--66">
          <mxGeometry relative="1" as="geometry">
            <Array as="points">
              <mxPoint x="225" y="100" />
            </Array>
          </mxGeometry>
        </mxCell>
        <mxCell id="8S-bYS2UDUefdeKPtJc--16" value="&lt;br&gt;&lt;br&gt;&lt;br&gt;RDS&lt;br&gt;Subnet Group" style="fillColor=none;strokeColor=#DD3522;verticalAlign=top;fontStyle=0;fontColor=#DD3522;whiteSpace=wrap;html=1;" vertex="1" parent="8S-bYS2UDUefdeKPtJc--3">
          <mxGeometry x="30" y="310" width="390" height="140" as="geometry" />
        </mxCell>
        <mxCell id="8S-bYS2UDUefdeKPtJc--19" value="ppldv-ec2" style="sketch=0;outlineConnect=0;fontColor=#232F3E;gradientColor=none;fillColor=#D45B07;strokeColor=none;dashed=0;verticalLabelPosition=bottom;verticalAlign=top;align=center;html=1;fontSize=12;fontStyle=0;aspect=fixed;pointerEvents=1;shape=mxgraph.aws4.instance2;" vertex="1" parent="8S-bYS2UDUefdeKPtJc--3">
          <mxGeometry x="66.99000000000001" y="91" width="28" height="28" as="geometry" />
        </mxCell>
        <mxCell id="8S-bYS2UDUefdeKPtJc--21" value="Amazon RDS&lt;br&gt;instance" style="sketch=0;outlineConnect=0;fontColor=#232F3E;gradientColor=none;fillColor=#2E27AD;strokeColor=none;dashed=0;verticalLabelPosition=bottom;verticalAlign=top;align=center;html=1;fontSize=12;fontStyle=0;aspect=fixed;pointerEvents=1;shape=mxgraph.aws4.rds_instance;" vertex="1" parent="8S-bYS2UDUefdeKPtJc--3">
          <mxGeometry x="80" y="356" width="48" height="48" as="geometry" />
        </mxCell>
        <mxCell id="8S-bYS2UDUefdeKPtJc--65" value="" style="outlineConnect=0;dashed=0;verticalLabelPosition=bottom;verticalAlign=top;align=center;html=1;shape=mxgraph.aws3.elastic_ip;fillColor=#F58534;gradientColor=none;" vertex="1" parent="8S-bYS2UDUefdeKPtJc--3">
          <mxGeometry x="59.49000000000001" y="73" width="43" height="15" as="geometry" />
        </mxCell>
        <mxCell id="8S-bYS2UDUefdeKPtJc--15" value="ap-northeast-2a" style="fillColor=none;strokeColor=#147EBA;dashed=1;verticalAlign=top;fontStyle=0;fontColor=#147EBA;whiteSpace=wrap;html=1;" vertex="1" parent="8S-bYS2UDUefdeKPtJc--3">
          <mxGeometry x="24" y="-20" width="160" height="490" as="geometry" />
        </mxCell>
        <mxCell id="8S-bYS2UDUefdeKPtJc--23" value="ppldv-igw" style="sketch=0;outlineConnect=0;fontColor=#232F3E;gradientColor=none;fillColor=#4D27AA;strokeColor=none;dashed=0;verticalLabelPosition=bottom;verticalAlign=top;align=center;html=1;fontSize=12;fontStyle=0;aspect=fixed;pointerEvents=1;shape=mxgraph.aws4.internet_gateway;" vertex="1" parent="8S-bYS2UDUefdeKPtJc--3">
          <mxGeometry x="204.99" y="-20" width="40" height="40" as="geometry" />
        </mxCell>
        <mxCell id="8S-bYS2UDUefdeKPtJc--70" style="edgeStyle=orthogonalEdgeStyle;rounded=0;orthogonalLoop=1;jettySize=auto;html=1;endArrow=none;endFill=0;" edge="1" parent="8S-bYS2UDUefdeKPtJc--2" source="8S-bYS2UDUefdeKPtJc--63" target="8S-bYS2UDUefdeKPtJc--66">
          <mxGeometry relative="1" as="geometry">
            <Array as="points">
              <mxPoint x="147" y="40" />
            </Array>
          </mxGeometry>
        </mxCell>
        <mxCell id="8S-bYS2UDUefdeKPtJc--63" value="ACM (SSL)" style="sketch=0;points=[[0,0,0],[0.25,0,0],[0.5,0,0],[0.75,0,0],[1,0,0],[0,1,0],[0.25,1,0],[0.5,1,0],[0.75,1,0],[1,1,0],[0,0.25,0],[0,0.5,0],[0,0.75,0],[1,0.25,0],[1,0.5,0],[1,0.75,0]];outlineConnect=0;fontColor=#232F3E;gradientColor=#F54749;gradientDirection=north;fillColor=#C7131F;strokeColor=#ffffff;dashed=0;verticalLabelPosition=bottom;verticalAlign=top;align=center;html=1;fontSize=12;fontStyle=0;aspect=fixed;shape=mxgraph.aws4.resourceIcon;resIcon=mxgraph.aws4.certificate_manager_3;" vertex="1" parent="8S-bYS2UDUefdeKPtJc--2">
          <mxGeometry x="171.99" y="13" width="36" height="36" as="geometry" />
        </mxCell>
        <mxCell id="8S-bYS2UDUefdeKPtJc--69" style="edgeStyle=orthogonalEdgeStyle;rounded=0;orthogonalLoop=1;jettySize=auto;html=1;endArrow=none;endFill=0;" edge="1" parent="8S-bYS2UDUefdeKPtJc--2" source="8S-bYS2UDUefdeKPtJc--62" target="8S-bYS2UDUefdeKPtJc--66">
          <mxGeometry relative="1" as="geometry">
            <Array as="points">
              <mxPoint x="147" y="41" />
            </Array>
          </mxGeometry>
        </mxCell>
        <mxCell id="8S-bYS2UDUefdeKPtJc--62" value="Route 53" style="sketch=0;points=[[0,0,0],[0.25,0,0],[0.5,0,0],[0.75,0,0],[1,0,0],[0,1,0],[0.25,1,0],[0.5,1,0],[0.75,1,0],[1,1,0],[0,0.25,0],[0,0.5,0],[0,0.75,0],[1,0.25,0],[1,0.5,0],[1,0.75,0]];outlineConnect=0;fontColor=#232F3E;gradientColor=#945DF2;gradientDirection=north;fillColor=#5A30B5;strokeColor=#ffffff;dashed=0;verticalLabelPosition=bottom;verticalAlign=top;align=center;html=1;fontSize=12;fontStyle=0;aspect=fixed;shape=mxgraph.aws4.resourceIcon;resIcon=mxgraph.aws4.route_53;" vertex="1" parent="8S-bYS2UDUefdeKPtJc--2">
          <mxGeometry x="81.99000000000001" y="8" width="41" height="41" as="geometry" />
        </mxCell>
        <mxCell id="8S-bYS2UDUefdeKPtJc--24" value="Internet" style="sketch=0;outlineConnect=0;fontColor=#232F3E;gradientColor=none;fillColor=#232F3D;strokeColor=none;dashed=0;verticalLabelPosition=bottom;verticalAlign=top;align=center;html=1;fontSize=12;fontStyle=0;aspect=fixed;pointerEvents=1;shape=mxgraph.aws4.internet;" vertex="1" parent="8S-bYS2UDUefdeKPtJc--1">
          <mxGeometry x="260.25" y="40" width="48.75" height="30" as="geometry" />
        </mxCell>
        <mxCell id="8S-bYS2UDUefdeKPtJc--27" value="" style="swimlane;startSize=0;" vertex="1" parent="1">
          <mxGeometry x="90" y="750" width="620" height="760" as="geometry" />
        </mxCell>
        <mxCell id="8S-bYS2UDUefdeKPtJc--28" value="ap-northeast-2" style="points=[[0,0],[0.25,0],[0.5,0],[0.75,0],[1,0],[1,0.25],[1,0.5],[1,0.75],[1,1],[0.75,1],[0.5,1],[0.25,1],[0,1],[0,0.75],[0,0.5],[0,0.25]];outlineConnect=0;gradientColor=none;html=1;whiteSpace=wrap;fontSize=12;fontStyle=0;container=1;pointerEvents=0;collapsible=0;recursiveResize=0;shape=mxgraph.aws4.group;grIcon=mxgraph.aws4.group_region;strokeColor=#147EBA;fillColor=none;verticalAlign=top;align=left;spacingLeft=30;fontColor=#147EBA;dashed=1;" vertex="1" parent="8S-bYS2UDUefdeKPtJc--27">
          <mxGeometry x="20" y="100" width="550" height="640" as="geometry" />
        </mxCell>
        <mxCell id="8S-bYS2UDUefdeKPtJc--29" value="my-vpc" style="points=[[0,0],[0.25,0],[0.5,0],[0.75,0],[1,0],[1,0.25],[1,0.5],[1,0.75],[1,1],[0.75,1],[0.5,1],[0.25,1],[0,1],[0,0.75],[0,0.5],[0,0.25]];outlineConnect=0;gradientColor=none;html=1;whiteSpace=wrap;fontSize=12;fontStyle=0;container=1;pointerEvents=0;collapsible=0;recursiveResize=0;shape=mxgraph.aws4.group;grIcon=mxgraph.aws4.group_vpc;strokeColor=#248814;fillColor=none;verticalAlign=top;align=left;spacingLeft=30;fontColor=#AAB7B8;dashed=0;" vertex="1" parent="8S-bYS2UDUefdeKPtJc--28">
          <mxGeometry x="10" y="115" width="500" height="505" as="geometry" />
        </mxCell>
        <mxCell id="8S-bYS2UDUefdeKPtJc--30" value="ap-northeast-2c" style="fillColor=none;strokeColor=#147EBA;dashed=1;verticalAlign=top;fontStyle=0;fontColor=#147EBA;whiteSpace=wrap;html=1;" vertex="1" parent="8S-bYS2UDUefdeKPtJc--29">
          <mxGeometry x="270" y="-25" width="210" height="545" as="geometry" />
        </mxCell>
        <mxCell id="8S-bYS2UDUefdeKPtJc--31" value="ap-northeast-2a" style="fillColor=none;strokeColor=#147EBA;dashed=1;verticalAlign=top;fontStyle=0;fontColor=#147EBA;whiteSpace=wrap;html=1;" vertex="1" parent="8S-bYS2UDUefdeKPtJc--29">
          <mxGeometry x="30" y="-25" width="210" height="545" as="geometry" />
        </mxCell>
        <mxCell id="8S-bYS2UDUefdeKPtJc--32" value="my-public-subnet-a" style="points=[[0,0],[0.25,0],[0.5,0],[0.75,0],[1,0],[1,0.25],[1,0.5],[1,0.75],[1,1],[0.75,1],[0.5,1],[0.25,1],[0,1],[0,0.75],[0,0.5],[0,0.25]];outlineConnect=0;gradientColor=none;html=1;whiteSpace=wrap;fontSize=12;fontStyle=0;container=1;pointerEvents=0;collapsible=0;recursiveResize=0;shape=mxgraph.aws4.group;grIcon=mxgraph.aws4.group_security_group;grStroke=0;strokeColor=#248814;fillColor=#E9F3E6;verticalAlign=top;align=left;spacingLeft=30;fontColor=#248814;dashed=0;" vertex="1" parent="8S-bYS2UDUefdeKPtJc--29">
          <mxGeometry x="40" y="30" width="190" height="191" as="geometry" />
        </mxCell>
        <mxCell id="8S-bYS2UDUefdeKPtJc--33" value="Security group" style="fillColor=none;strokeColor=#DD3522;verticalAlign=top;fontStyle=0;fontColor=#DD3522;whiteSpace=wrap;html=1;" vertex="1" parent="8S-bYS2UDUefdeKPtJc--32">
          <mxGeometry x="95" y="25" width="90.5" height="80" as="geometry" />
        </mxCell>
        <mxCell id="8S-bYS2UDUefdeKPtJc--34" value="opneVpn" style="sketch=0;pointerEvents=1;shadow=0;dashed=0;html=1;strokeColor=none;fillColor=#DF8C42;labelPosition=center;verticalLabelPosition=bottom;verticalAlign=top;align=center;outlineConnect=0;shape=mxgraph.veeam2.open_vpn;" vertex="1" parent="8S-bYS2UDUefdeKPtJc--32">
          <mxGeometry x="123.25" y="51" width="34" height="34" as="geometry" />
        </mxCell>
        <mxCell id="8S-bYS2UDUefdeKPtJc--35" value="Security group" style="fillColor=none;strokeColor=#DD3522;verticalAlign=top;fontStyle=0;fontColor=#DD3522;whiteSpace=wrap;html=1;" vertex="1" parent="8S-bYS2UDUefdeKPtJc--32">
          <mxGeometry x="20" y="115" width="80" height="75" as="geometry" />
        </mxCell>
        <mxCell id="8S-bYS2UDUefdeKPtJc--36" value="ALB" style="sketch=0;outlineConnect=0;fontColor=#232F3E;gradientColor=none;fillColor=#4D27AA;strokeColor=none;dashed=0;verticalLabelPosition=bottom;verticalAlign=top;align=center;html=1;fontSize=12;fontStyle=0;aspect=fixed;pointerEvents=1;shape=mxgraph.aws4.application_load_balancer;" vertex="1" parent="8S-bYS2UDUefdeKPtJc--32">
          <mxGeometry x="41" y="131" width="38" height="38" as="geometry" />
        </mxCell>
        <mxCell id="8S-bYS2UDUefdeKPtJc--37" value="my-private-subnet-app-a" style="points=[[0,0],[0.25,0],[0.5,0],[0.75,0],[1,0],[1,0.25],[1,0.5],[1,0.75],[1,1],[0.75,1],[0.5,1],[0.25,1],[0,1],[0,0.75],[0,0.5],[0,0.25]];outlineConnect=0;gradientColor=none;html=1;whiteSpace=wrap;fontSize=12;fontStyle=0;container=1;pointerEvents=0;collapsible=0;recursiveResize=0;shape=mxgraph.aws4.group;grIcon=mxgraph.aws4.group_security_group;grStroke=0;strokeColor=#147EBA;fillColor=#E6F2F8;verticalAlign=top;align=left;spacingLeft=30;fontColor=#147EBA;dashed=0;" vertex="1" parent="8S-bYS2UDUefdeKPtJc--29">
          <mxGeometry x="40" y="230" width="190" height="140" as="geometry" />
        </mxCell>
        <mxCell id="8S-bYS2UDUefdeKPtJc--38" value="Security group" style="fillColor=none;strokeColor=#DD3522;verticalAlign=top;fontStyle=0;fontColor=#DD3522;whiteSpace=wrap;html=1;" vertex="1" parent="8S-bYS2UDUefdeKPtJc--37">
          <mxGeometry x="20" y="40" width="130" height="80" as="geometry" />
        </mxCell>
        <mxCell id="8S-bYS2UDUefdeKPtJc--39" value="my-nickname-app-ec2" style="sketch=0;outlineConnect=0;fontColor=#232F3E;gradientColor=none;fillColor=#D45B07;strokeColor=none;dashed=0;verticalLabelPosition=bottom;verticalAlign=top;align=center;html=1;fontSize=12;fontStyle=0;aspect=fixed;pointerEvents=1;shape=mxgraph.aws4.instance2;" vertex="1" parent="8S-bYS2UDUefdeKPtJc--37">
          <mxGeometry x="68" y="63" width="34" height="34" as="geometry" />
        </mxCell>
        <mxCell id="8S-bYS2UDUefdeKPtJc--40" value="my-private-subnet-db-a" style="points=[[0,0],[0.25,0],[0.5,0],[0.75,0],[1,0],[1,0.25],[1,0.5],[1,0.75],[1,1],[0.75,1],[0.5,1],[0.25,1],[0,1],[0,0.75],[0,0.5],[0,0.25]];outlineConnect=0;gradientColor=none;html=1;whiteSpace=wrap;fontSize=12;fontStyle=0;container=1;pointerEvents=0;collapsible=0;recursiveResize=0;shape=mxgraph.aws4.group;grIcon=mxgraph.aws4.group_security_group;grStroke=0;strokeColor=#147EBA;fillColor=#E6F2F8;verticalAlign=top;align=left;spacingLeft=30;fontColor=#147EBA;dashed=0;" vertex="1" parent="8S-bYS2UDUefdeKPtJc--29">
          <mxGeometry x="40" y="380" width="190" height="125" as="geometry" />
        </mxCell>
        <mxCell id="8S-bYS2UDUefdeKPtJc--41" value="Security group" style="fillColor=none;strokeColor=#DD3522;verticalAlign=top;fontStyle=0;fontColor=#DD3522;whiteSpace=wrap;html=1;" vertex="1" parent="8S-bYS2UDUefdeKPtJc--40">
          <mxGeometry x="20" y="18.75" width="150" height="92.5" as="geometry" />
        </mxCell>
        <mxCell id="8S-bYS2UDUefdeKPtJc--42" value="my-public-subnet-c" style="points=[[0,0],[0.25,0],[0.5,0],[0.75,0],[1,0],[1,0.25],[1,0.5],[1,0.75],[1,1],[0.75,1],[0.5,1],[0.25,1],[0,1],[0,0.75],[0,0.5],[0,0.25]];outlineConnect=0;gradientColor=none;html=1;whiteSpace=wrap;fontSize=12;fontStyle=0;container=1;pointerEvents=0;collapsible=0;recursiveResize=0;shape=mxgraph.aws4.group;grIcon=mxgraph.aws4.group_security_group;grStroke=0;strokeColor=#248814;fillColor=#E9F3E6;verticalAlign=top;align=left;spacingLeft=30;fontColor=#248814;dashed=0;" vertex="1" parent="8S-bYS2UDUefdeKPtJc--29">
          <mxGeometry x="280" y="30" width="190" height="130" as="geometry" />
        </mxCell>
        <mxCell id="8S-bYS2UDUefdeKPtJc--43" value="my-private-subnet-app-c" style="points=[[0,0],[0.25,0],[0.5,0],[0.75,0],[1,0],[1,0.25],[1,0.5],[1,0.75],[1,1],[0.75,1],[0.5,1],[0.25,1],[0,1],[0,0.75],[0,0.5],[0,0.25]];outlineConnect=0;gradientColor=none;html=1;whiteSpace=wrap;fontSize=12;fontStyle=0;container=1;pointerEvents=0;collapsible=0;recursiveResize=0;shape=mxgraph.aws4.group;grIcon=mxgraph.aws4.group_security_group;grStroke=0;strokeColor=#147EBA;fillColor=#E6F2F8;verticalAlign=top;align=left;spacingLeft=30;fontColor=#147EBA;dashed=0;" vertex="1" parent="8S-bYS2UDUefdeKPtJc--29">
          <mxGeometry x="280" y="180" width="190" height="130" as="geometry" />
        </mxCell>
        <mxCell id="8S-bYS2UDUefdeKPtJc--44" value="my-private-subnet-db-c" style="points=[[0,0],[0.25,0],[0.5,0],[0.75,0],[1,0],[1,0.25],[1,0.5],[1,0.75],[1,1],[0.75,1],[0.5,1],[0.25,1],[0,1],[0,0.75],[0,0.5],[0,0.25]];outlineConnect=0;gradientColor=none;html=1;whiteSpace=wrap;fontSize=12;fontStyle=0;container=1;pointerEvents=0;collapsible=0;recursiveResize=0;shape=mxgraph.aws4.group;grIcon=mxgraph.aws4.group_security_group;grStroke=0;strokeColor=#147EBA;fillColor=#E6F2F8;verticalAlign=top;align=left;spacingLeft=30;fontColor=#147EBA;dashed=0;" vertex="1" parent="8S-bYS2UDUefdeKPtJc--29">
          <mxGeometry x="280" y="330" width="190" height="130" as="geometry" />
        </mxCell>
        <mxCell id="8S-bYS2UDUefdeKPtJc--45" value="" style="outlineConnect=0;dashed=0;verticalLabelPosition=bottom;verticalAlign=top;align=center;html=1;shape=mxgraph.aws3.elastic_ip;fillColor=#F58534;gradientColor=none;" vertex="1" parent="8S-bYS2UDUefdeKPtJc--29">
          <mxGeometry x="66" y="60" width="43" height="15" as="geometry" />
        </mxCell>
        <mxCell id="8S-bYS2UDUefdeKPtJc--46" value="my-natgateway" style="outlineConnect=0;dashed=0;verticalLabelPosition=bottom;verticalAlign=top;align=center;html=1;shape=mxgraph.aws3.vpc_nat_gateway;fillColor=#F58534;gradientColor=none;" vertex="1" parent="8S-bYS2UDUefdeKPtJc--29">
          <mxGeometry x="65" y="75" width="44" height="40" as="geometry" />
        </mxCell>
        <mxCell id="8S-bYS2UDUefdeKPtJc--47" value="my-nickname-app-rds" style="sketch=0;outlineConnect=0;fontColor=#232F3E;gradientColor=none;fillColor=#2E27AD;strokeColor=none;dashed=0;verticalLabelPosition=bottom;verticalAlign=top;align=center;html=1;fontSize=12;fontStyle=0;aspect=fixed;pointerEvents=1;shape=mxgraph.aws4.rds_mysql_instance;" vertex="1" parent="8S-bYS2UDUefdeKPtJc--29">
          <mxGeometry x="115" y="425" width="40" height="40" as="geometry" />
        </mxCell>
        <mxCell id="8S-bYS2UDUefdeKPtJc--48" value="" style="endArrow=classic;startArrow=classic;html=1;rounded=0;entryX=0.583;entryY=0.998;entryDx=0;entryDy=0;entryPerimeter=0;exitX=0.418;exitY=-0.002;exitDx=0;exitDy=0;exitPerimeter=0;" edge="1" parent="8S-bYS2UDUefdeKPtJc--29" source="8S-bYS2UDUefdeKPtJc--41" target="8S-bYS2UDUefdeKPtJc--38">
          <mxGeometry width="50" height="50" relative="1" as="geometry">
            <mxPoint x="130" y="425" as="sourcePoint" />
            <mxPoint x="108" y="360" as="targetPoint" />
          </mxGeometry>
        </mxCell>
        <mxCell id="8S-bYS2UDUefdeKPtJc--49" style="edgeStyle=orthogonalEdgeStyle;rounded=0;orthogonalLoop=1;jettySize=auto;html=1;" edge="1" parent="8S-bYS2UDUefdeKPtJc--29" source="8S-bYS2UDUefdeKPtJc--35" target="8S-bYS2UDUefdeKPtJc--38">
          <mxGeometry relative="1" as="geometry" />
        </mxCell>
        <mxCell id="8S-bYS2UDUefdeKPtJc--50" value="my-igw" style="sketch=0;outlineConnect=0;fontColor=#232F3E;gradientColor=none;fillColor=#4D27AA;strokeColor=none;dashed=0;verticalLabelPosition=bottom;verticalAlign=top;align=center;html=1;fontSize=12;fontStyle=0;aspect=fixed;pointerEvents=1;shape=mxgraph.aws4.internet_gateway;" vertex="1" parent="8S-bYS2UDUefdeKPtJc--28">
          <mxGeometry x="241" y="90" width="38" height="38" as="geometry" />
        </mxCell>
        <mxCell id="8S-bYS2UDUefdeKPtJc--51" value="Route 53" style="sketch=0;points=[[0,0,0],[0.25,0,0],[0.5,0,0],[0.75,0,0],[1,0,0],[0,1,0],[0.25,1,0],[0.5,1,0],[0.75,1,0],[1,1,0],[0,0.25,0],[0,0.5,0],[0,0.75,0],[1,0.25,0],[1,0.5,0],[1,0.75,0]];outlineConnect=0;fontColor=#232F3E;gradientColor=#945DF2;gradientDirection=north;fillColor=#5A30B5;strokeColor=#ffffff;dashed=0;verticalLabelPosition=bottom;verticalAlign=top;align=center;html=1;fontSize=12;fontStyle=0;aspect=fixed;shape=mxgraph.aws4.resourceIcon;resIcon=mxgraph.aws4.route_53;" vertex="1" parent="8S-bYS2UDUefdeKPtJc--28">
          <mxGeometry x="113.39" y="27" width="41" height="41" as="geometry" />
        </mxCell>
        <mxCell id="8S-bYS2UDUefdeKPtJc--52" value="ACM (SSL)" style="sketch=0;points=[[0,0,0],[0.25,0,0],[0.5,0,0],[0.75,0,0],[1,0,0],[0,1,0],[0.25,1,0],[0.5,1,0],[0.75,1,0],[1,1,0],[0,0.25,0],[0,0.5,0],[0,0.75,0],[1,0.25,0],[1,0.5,0],[1,0.75,0]];outlineConnect=0;fontColor=#232F3E;gradientColor=#F54749;gradientDirection=north;fillColor=#C7131F;strokeColor=#ffffff;dashed=0;verticalLabelPosition=bottom;verticalAlign=top;align=center;html=1;fontSize=12;fontStyle=0;aspect=fixed;shape=mxgraph.aws4.resourceIcon;resIcon=mxgraph.aws4.certificate_manager_3;" vertex="1" parent="8S-bYS2UDUefdeKPtJc--28">
          <mxGeometry x="190" y="29.5" width="36" height="36" as="geometry" />
        </mxCell>
        <mxCell id="8S-bYS2UDUefdeKPtJc--53" value="" style="endArrow=none;html=1;rounded=0;exitX=1;exitY=0.5;exitDx=0;exitDy=0;exitPerimeter=0;entryX=0;entryY=0.5;entryDx=0;entryDy=0;entryPerimeter=0;" edge="1" parent="8S-bYS2UDUefdeKPtJc--28" source="8S-bYS2UDUefdeKPtJc--51" target="8S-bYS2UDUefdeKPtJc--52">
          <mxGeometry width="50" height="50" relative="1" as="geometry">
            <mxPoint x="270" y="70" as="sourcePoint" />
            <mxPoint x="320" y="20" as="targetPoint" />
          </mxGeometry>
        </mxCell>
        <mxCell id="8S-bYS2UDUefdeKPtJc--54" value="CloudFront" style="sketch=0;points=[[0,0,0],[0.25,0,0],[0.5,0,0],[0.75,0,0],[1,0,0],[0,1,0],[0.25,1,0],[0.5,1,0],[0.75,1,0],[1,1,0],[0,0.25,0],[0,0.5,0],[0,0.75,0],[1,0.25,0],[1,0.5,0],[1,0.75,0]];outlineConnect=0;fontColor=#232F3E;gradientColor=#945DF2;gradientDirection=north;fillColor=#5A30B5;strokeColor=#ffffff;dashed=0;verticalLabelPosition=bottom;verticalAlign=top;align=center;html=1;fontSize=12;fontStyle=0;aspect=fixed;shape=mxgraph.aws4.resourceIcon;resIcon=mxgraph.aws4.cloudfront;" vertex="1" parent="8S-bYS2UDUefdeKPtJc--28">
          <mxGeometry x="255" y="28" width="38" height="38" as="geometry" />
        </mxCell>
        <mxCell id="8S-bYS2UDUefdeKPtJc--55" value="" style="endArrow=none;html=1;rounded=0;exitX=1;exitY=0.5;exitDx=0;exitDy=0;exitPerimeter=0;entryX=0;entryY=0.5;entryDx=0;entryDy=0;entryPerimeter=0;" edge="1" parent="8S-bYS2UDUefdeKPtJc--28" source="8S-bYS2UDUefdeKPtJc--52" target="8S-bYS2UDUefdeKPtJc--54">
          <mxGeometry width="50" height="50" relative="1" as="geometry">
            <mxPoint x="164" y="58" as="sourcePoint" />
            <mxPoint x="200" y="58" as="targetPoint" />
          </mxGeometry>
        </mxCell>
        <mxCell id="8S-bYS2UDUefdeKPtJc--56" value="" style="endArrow=none;html=1;rounded=0;entryX=0.865;entryY=0.02;entryDx=0;entryDy=0;entryPerimeter=0;" edge="1" parent="8S-bYS2UDUefdeKPtJc--28" target="8S-bYS2UDUefdeKPtJc--35">
          <mxGeometry width="50" height="50" relative="1" as="geometry">
            <mxPoint x="170" y="48" as="sourcePoint" />
            <mxPoint x="400" y="20" as="targetPoint" />
            <Array as="points">
              <mxPoint x="170" y="110" />
              <mxPoint x="170" y="150" />
              <mxPoint x="140" y="150" />
            </Array>
          </mxGeometry>
        </mxCell>
        <mxCell id="8S-bYS2UDUefdeKPtJc--57" value="Source Code" style="sketch=0;outlineConnect=0;fontColor=#232F3E;gradientColor=none;fillColor=#232F3D;strokeColor=none;dashed=0;verticalLabelPosition=bottom;verticalAlign=top;align=center;html=1;fontSize=12;fontStyle=0;aspect=fixed;pointerEvents=1;shape=mxgraph.aws4.source_code;" vertex="1" parent="8S-bYS2UDUefdeKPtJc--27">
          <mxGeometry x="280" y="20" width="27.77" height="38" as="geometry" />
        </mxCell>
        <mxCell id="8S-bYS2UDUefdeKPtJc--58" style="edgeStyle=orthogonalEdgeStyle;rounded=0;orthogonalLoop=1;jettySize=auto;html=1;" edge="1" parent="8S-bYS2UDUefdeKPtJc--27" source="8S-bYS2UDUefdeKPtJc--59" target="8S-bYS2UDUefdeKPtJc--57">
          <mxGeometry relative="1" as="geometry" />
        </mxCell>
        <mxCell id="8S-bYS2UDUefdeKPtJc--59" value="" style="sketch=0;outlineConnect=0;fontColor=#232F3E;gradientColor=none;fillColor=#232F3D;strokeColor=none;dashed=0;verticalLabelPosition=bottom;verticalAlign=top;align=center;html=1;fontSize=12;fontStyle=0;aspect=fixed;pointerEvents=1;shape=mxgraph.aws4.user;" vertex="1" parent="8S-bYS2UDUefdeKPtJc--27">
          <mxGeometry x="430" y="18" width="41" height="41" as="geometry" />
        </mxCell>
        <mxCell id="8S-bYS2UDUefdeKPtJc--60" value="1. URL 접속&lt;br&gt;2. Frontend Test&lt;br&gt;3. Backend Test&lt;br&gt;4. Cache Hit 확인" style="text;html=1;strokeColor=none;fillColor=none;align=center;verticalAlign=middle;whiteSpace=wrap;rounded=0;" vertex="1" parent="8S-bYS2UDUefdeKPtJc--27">
          <mxGeometry x="320" y="20" width="100" height="30" as="geometry" />
        </mxCell>
        <mxCell id="8S-bYS2UDUefdeKPtJc--61" style="edgeStyle=orthogonalEdgeStyle;rounded=0;orthogonalLoop=1;jettySize=auto;html=1;" edge="1" parent="8S-bYS2UDUefdeKPtJc--27" source="8S-bYS2UDUefdeKPtJc--54" target="8S-bYS2UDUefdeKPtJc--57">
          <mxGeometry relative="1" as="geometry" />
        </mxCell>
      </root>
    </mxGraphModel>
  </diagram>
</mxfile>
